# xmcd
#
# Track frame offsets:
#	150
#	16642
#	41898
#	57324
#	73586
#	89210
#	105175
#	120004
#
# Disc length: 1823 seconds
#
# Revision: 4215929138
# Processed by: cddbd v1.5.2PL0 Copyright (c) Steve Scherf et al.
# Submitted via: EZCDAudioConverter 8.0.2.1
#
DISCID=5d071d08
DTITLE=Thủy Tiên - Vol 05. Em Đã Quên
DYEAR=2010
DGENRE=World Pop
TTITLE0=Em Đã Quên
TTITLE1=Nhạt phai
TTITLE2=Nỗi nhớ bơ vơ
TTITLE3=Muộn màng
TTITLE4=Xóa hết
TTITLE5=Vì em cần anh
TTITLE6=Như chưa từng quên
TTITLE7=Giấc mơ ngọt ngào
EXTD=
EXTT0=
EXTT1=
EXTT2=
EXTT3=
EXTT4=
EXTT5=
EXTT6=
EXTT7=
PLAYORDER=
